<svg xmlns="http://www.w3.org/2000/svg" width="300" height="300" viewBox="0 0 300 300" version="1.1"><path d="M 61.500 135 C 57.786 144.900, 54.584 153, 54.385 153 C 53.454 153, 31.005 141.477, 31.045 141.020 C 31.070 140.734, 34.670 138.832, 39.045 136.794 C 45.181 133.935, 47 132.620, 47 131.044 C 47 129.920, 46.781 129, 46.513 129 C 46.245 129, 41.745 131.127, 36.513 133.726 C 28.211 137.850, 27 138.777, 27 141.006 C 27 143.285, 28.405 144.257, 40 150 C 47.150 153.541, 53 156.819, 53 157.285 C 53 157.751, 52.534 159.002, 51.965 160.066 C 51.072 161.735, 51.267 162, 53.393 162 C 55.448 162, 56.182 161.130, 57.824 156.750 C 59.931 151.129, 70.123 124.315, 71.887 119.750 C 72.862 117.229, 72.755 117, 70.601 117 C 68.473 117, 67.618 118.691, 61.500 135 M 176.358 121.511 C 175.407 123.989, 178.571 126.760, 180.769 125.374 C 181.721 124.773, 182.500 123.431, 182.500 122.391 C 182.500 119.868, 177.275 119.119, 176.358 121.511 M 203 127 C 203 130.905, 202.917 131, 199.500 131 C 196.667 131, 196 131.381, 196 133 C 196 134.619, 196.667 135, 199.500 135 L 203 135 203 143.365 C 203 150.314, 203.351 152.176, 205.073 154.365 C 206.857 156.633, 207.900 157, 212.573 157 C 217.282 157, 218 156.743, 218 155.055 C 218 153.444, 217.184 153.057, 213.250 152.805 L 208.500 152.500 208.211 143.750 L 207.922 135 212.961 135 C 217.333 135, 218 134.735, 218 133 C 218 131.267, 217.333 131, 213 131 L 208 131 208 127 C 208 123.400, 207.750 123, 205.500 123 C 203.250 123, 203 123.400, 203 127 M 255 131.046 C 255 132.627, 256.929 134.018, 263.484 137.163 L 271.968 141.234 263.484 145.292 C 256.421 148.670, 255 149.741, 255 151.684 C 255 153.951, 255.289 153.873, 265 149 C 274.046 144.461, 275 143.718, 275 141.217 C 275 138.721, 274.072 137.990, 265.487 133.726 C 260.255 131.127, 255.755 129, 255.487 129 C 255.219 129, 255 129.921, 255 131.046 M 87.315 131.007 C 82.487 132.952, 81.535 139.703, 85.635 142.927 C 87.084 144.067, 88.772 145.003, 89.385 145.006 C 92.409 145.021, 97.871 147.223, 98.418 148.646 C 99.881 152.459, 93.654 154.972, 88.774 152.537 C 84.917 150.613, 83 150.582, 83 152.443 C 83 155.092, 87.207 157, 93.048 157 C 97.612 157, 99.055 156.571, 100.826 154.686 C 105.639 149.562, 102.539 143.571, 94.107 141.698 C 88.086 140.360, 85.825 138.121, 87.930 135.584 C 89.621 133.547, 95.396 133.538, 97.427 135.570 C 98.290 136.433, 100.010 136.991, 101.248 136.810 C 103.442 136.489, 103.419 136.398, 100.327 133.240 C 97.804 130.664, 96.369 130.013, 93.327 130.063 C 91.222 130.098, 88.517 130.523, 87.315 131.007 M 115.250 131.989 C 113.314 133.169, 112 134.785, 112 135.985 C 112 138.563, 114.174 138.570, 116.500 136 C 120.111 132.010, 127 134.354, 127 139.571 C 127 141.887, 126.705 142, 120.674 142 C 115.355 142, 114.003 142.368, 112.174 144.314 C 109.286 147.389, 109.348 152.039, 112.314 154.826 C 115.196 157.533, 122.431 157.825, 125.171 155.345 C 126.873 153.805, 127 153.805, 127 155.345 C 127 156.333, 127.806 157, 129 157 C 130.872 157, 131 156.333, 131 146.582 C 131 134.476, 130.716 133.422, 126.928 131.463 C 123.050 129.457, 119.111 129.635, 115.250 131.989 M 146.635 132.073 C 144.451 133.791, 144 133.876, 144 132.573 C 144 131.667, 143.152 131, 142 131 C 140.103 131, 140 131.667, 140 144 C 140 156.333, 140.103 157, 142 157 C 143.846 157, 144.001 156.328, 144.015 148.250 C 144.032 137.720, 145.280 134.624, 149.677 134.194 C 154.644 133.708, 156 136.608, 156 147.723 C 156 156.333, 156.144 157, 158 157 C 159.866 157, 160 156.333, 160 147.047 C 160 136.125, 159.025 132.788, 155.343 131.110 C 151.796 129.494, 149.605 129.736, 146.635 132.073 M 170 133 C 170 134.667, 170.667 135, 174 135 L 178 135 178 144 L 178 153 173 153 C 168.667 153, 168 153.267, 168 155 C 168 156.884, 168.667 157, 179.500 157 C 190.333 157, 191 156.884, 191 155 C 191 153.296, 190.333 153, 186.500 153 L 182 153 182 142 L 182 131 176 131 C 170.667 131, 170 131.222, 170 133 M 225.266 132.250 C 225.530 132.938, 227.665 138.410, 230.012 144.412 L 234.278 155.324 232.634 159.912 C 230.528 165.791, 230.563 166.204, 233.146 165.820 C 234.854 165.565, 235.958 163.663, 238.557 156.500 C 240.352 151.550, 243.200 143.787, 244.886 139.250 L 247.950 131 245.557 131 C 243.421 131, 242.820 132.036, 239.938 140.685 L 236.712 150.370 233.239 140.685 C 230.111 131.961, 229.520 131, 227.276 131 C 225.695 131, 224.961 131.456, 225.266 132.250 M 115.035 146.934 C 113.629 149.562, 113.729 150.586, 115.571 152.429 C 119.272 156.129, 127 153.096, 127 147.943 C 127 145.045, 126.917 145, 121.535 145 C 117.156 145, 115.865 145.384, 115.035 146.934" stroke="none" fill="#0c0c0c" fill-rule="evenodd"/><path d="M 133.500 0.625 C 112.549 3.792, 97.720 8.440, 81.015 17.074 C 41.068 37.722, 12.576 75.329, 2.798 120.312 C -0.420 135.119, -0.420 165.881, 2.798 180.688 C 12.571 225.648, 41.151 263.382, 80.943 283.863 C 94.761 290.976, 106.645 295.278, 119.969 297.994 C 134.126 300.879, 166.874 300.879, 181.031 297.994 C 224.737 289.087, 263.426 259.764, 283.863 220.057 C 295.431 197.582, 299.771 180.781, 300.667 155 C 301.156 140.952, 300.926 136.661, 299.121 126.129 C 291.031 78.915, 261.803 38.623, 220.057 17.137 C 196.798 5.166, 180.362 1.029, 154 0.513 C 144.375 0.325, 135.150 0.375, 133.500 0.625 M 61.500 135 C 57.786 144.900, 54.584 153, 54.385 153 C 53.454 153, 31.005 141.477, 31.045 141.020 C 31.070 140.734, 34.670 138.832, 39.045 136.794 C 45.181 133.935, 47 132.620, 47 131.044 C 47 129.920, 46.781 129, 46.513 129 C 46.245 129, 41.745 131.127, 36.513 133.726 C 28.211 137.850, 27 138.777, 27 141.006 C 27 143.285, 28.405 144.257, 40 150 C 47.150 153.541, 53 156.819, 53 157.285 C 53 157.751, 52.534 159.002, 51.965 160.066 C 51.072 161.735, 51.267 162, 53.393 162 C 55.448 162, 56.182 161.130, 57.824 156.750 C 59.931 151.129, 70.123 124.315, 71.887 119.750 C 72.862 117.229, 72.755 117, 70.601 117 C 68.473 117, 67.618 118.691, 61.500 135 M 176.358 121.511 C 175.407 123.989, 178.571 126.760, 180.769 125.374 C 181.721 124.773, 182.500 123.431, 182.500 122.391 C 182.500 119.868, 177.275 119.119, 176.358 121.511 M 203 127 C 203 130.905, 202.917 131, 199.500 131 C 196.667 131, 196 131.381, 196 133 C 196 134.619, 196.667 135, 199.500 135 L 203 135 203 143.365 C 203 150.314, 203.351 152.176, 205.073 154.365 C 206.857 156.633, 207.900 157, 212.573 157 C 217.282 157, 218 156.743, 218 155.055 C 218 153.444, 217.184 153.057, 213.250 152.805 L 208.500 152.500 208.211 143.750 L 207.922 135 212.961 135 C 217.333 135, 218 134.735, 218 133 C 218 131.267, 217.333 131, 213 131 L 208 131 208 127 C 208 123.400, 207.750 123, 205.500 123 C 203.250 123, 203 123.400, 203 127 M 255 131.046 C 255 132.627, 256.929 134.018, 263.484 137.163 L 271.968 141.234 263.484 145.292 C 256.421 148.670, 255 149.741, 255 151.684 C 255 153.951, 255.289 153.873, 265 149 C 274.046 144.461, 275 143.718, 275 141.217 C 275 138.721, 274.072 137.990, 265.487 133.726 C 260.255 131.127, 255.755 129, 255.487 129 C 255.219 129, 255 129.921, 255 131.046 M 87.315 131.007 C 82.487 132.952, 81.535 139.703, 85.635 142.927 C 87.084 144.067, 88.772 145.003, 89.385 145.006 C 92.409 145.021, 97.871 147.223, 98.418 148.646 C 99.881 152.459, 93.654 154.972, 88.774 152.537 C 84.917 150.613, 83 150.582, 83 152.443 C 83 155.092, 87.207 157, 93.048 157 C 97.612 157, 99.055 156.571, 100.826 154.686 C 105.639 149.562, 102.539 143.571, 94.107 141.698 C 88.086 140.360, 85.825 138.121, 87.930 135.584 C 89.621 133.547, 95.396 133.538, 97.427 135.570 C 98.290 136.433, 100.010 136.991, 101.248 136.810 C 103.442 136.489, 103.419 136.398, 100.327 133.240 C 97.804 130.664, 96.369 130.013, 93.327 130.063 C 91.222 130.098, 88.517 130.523, 87.315 131.007 M 115.250 131.989 C 113.314 133.169, 112 134.785, 112 135.985 C 112 138.563, 114.174 138.570, 116.500 136 C 120.111 132.010, 127 134.354, 127 139.571 C 127 141.887, 126.705 142, 120.674 142 C 115.355 142, 114.003 142.368, 112.174 144.314 C 109.286 147.389, 109.348 152.039, 112.314 154.826 C 115.196 157.533, 122.431 157.825, 125.171 155.345 C 126.873 153.805, 127 153.805, 127 155.345 C 127 156.333, 127.806 157, 129 157 C 130.872 157, 131 156.333, 131 146.582 C 131 134.476, 130.716 133.422, 126.928 131.463 C 123.050 129.457, 119.111 129.635, 115.250 131.989 M 146.635 132.073 C 144.451 133.791, 144 133.876, 144 132.573 C 144 131.667, 143.152 131, 142 131 C 140.103 131, 140 131.667, 140 144 C 140 156.333, 140.103 157, 142 157 C 143.846 157, 144.001 156.328, 144.015 148.250 C 144.032 137.720, 145.280 134.624, 149.677 134.194 C 154.644 133.708, 156 136.608, 156 147.723 C 156 156.333, 156.144 157, 158 157 C 159.866 157, 160 156.333, 160 147.047 C 160 136.125, 159.025 132.788, 155.343 131.110 C 151.796 129.494, 149.605 129.736, 146.635 132.073 M 170 133 C 170 134.667, 170.667 135, 174 135 L 178 135 178 144 L 178 153 173 153 C 168.667 153, 168 153.267, 168 155 C 168 156.884, 168.667 157, 179.500 157 C 190.333 157, 191 156.884, 191 155 C 191 153.296, 190.333 153, 186.500 153 L 182 153 182 142 L 182 131 176 131 C 170.667 131, 170 131.222, 170 133 M 225.266 132.250 C 225.530 132.938, 227.665 138.410, 230.012 144.412 L 234.278 155.324 232.634 159.912 C 230.528 165.791, 230.563 166.204, 233.146 165.820 C 234.854 165.565, 235.958 163.663, 238.557 156.500 C 240.352 151.550, 243.200 143.787, 244.886 139.250 L 247.950 131 245.557 131 C 243.421 131, 242.820 132.036, 239.938 140.685 L 236.712 150.370 233.239 140.685 C 230.111 131.961, 229.520 131, 227.276 131 C 225.695 131, 224.961 131.456, 225.266 132.250 M 0.400 150.500 C 0.401 158.750, 0.556 161.992, 0.744 157.704 C 0.932 153.417, 0.931 146.667, 0.742 142.704 C 0.552 138.742, 0.399 142.250, 0.400 150.500 M 115.035 146.934 C 113.629 149.562, 113.729 150.586, 115.571 152.429 C 119.272 156.129, 127 153.096, 127 147.943 C 127 145.045, 126.917 145, 121.535 145 C 117.156 145, 115.865 145.384, 115.035 146.934" stroke="none" fill="#fbfbfb" fill-rule="evenodd"/></svg>